<svg id="Calque_1" data-name="Calque 1" xmlns="http://www.w3.org/2000/svg" viewBox="0 0 631.84 393.68"><path d="M70.86,507.21V165.94c0-17.4-16.84-23-34.24-23v-2.8H157.86c137.52,0,184.11,62.3,171.2,140.88-11.78,73.54-104.4,116.19-157.16,62.87l-73-74.09V507.21c0,17.4,16.84,23,34.24,23V533H36.62v-2.81C54,530.22,70.86,524.61,70.86,507.21ZM174.14,341.63c37.05,38.16,115.07,4.49,126.3-61.75,16.84-100.47-44.91-137-142.58-137H98.93V264.73Z" transform="translate(-36.62 -139.35)"/><path d="M340.1,507.21v-192c0-83.63,62.3-151.55,144.25-169,103.84-21.89,142,10.11,144.26,66.24L510.73,329.28c52.2-39.86,157.73-20.21,157.73,84.19,0,75.78-78.58,119.56-185.79,119.56H305.86v-2.81C323.26,530.22,340.1,524.61,340.1,507.21ZM562.93,272.59c80.27-80.27,27.51-145.94-77.45-123.49-57.82,12.35-117.32,65.67-117.32,166.14V468.48ZM482.67,530.22c115.07,0,157.72-67.35,157.72-116.75,0-82-89.24-124.61-147.62-66.23L368.16,471.85v58.37Z" transform="translate(-36.62 -139.35)"/></svg>